<svg width="22" height="32" viewBox="0 0 22 32" fill="none" xmlns="http://www.w3.org/2000/svg">
<path d="M3.29299 0C2.55356 0.994374 2.05015 2.13905 1.81978 3.34989C1.58942 4.56073 1.63795 5.80695 1.9618 6.99692C2.28565 8.1869 2.87658 9.29038 3.69117 10.2262C4.50576 11.1621 5.52329 11.9066 6.66895 12.4049L20.2729 18.8701C21.0123 17.8757 21.5156 16.7309 21.7459 15.52C21.9762 14.3092 21.9276 13.0629 21.6036 11.8729C21.2797 10.6829 20.6886 9.57948 19.8739 8.64366C19.0592 7.70784 18.0416 6.96345 16.8958 6.46524L3.29299 0Z" fill="#0062AA"/>
<path d="M14.9185 9.32375L11.2831 14.5964L0 30.944C2.51008 32.061 5.33641 32.2875 7.99729 31.5849C10.6582 30.8822 12.9889 29.294 14.5923 27.0908L20.2714 18.862C21.0107 17.8677 21.5139 16.7232 21.7443 15.5125C21.9746 14.3018 21.9261 13.0558 21.6024 11.8659C21.2786 10.6761 20.6879 9.57274 19.8735 8.63691C19.0592 7.70108 18.0419 6.95658 16.8965 6.45812L13.7288 4.95752C14.1314 5.13354 14.4888 5.39581 14.775 5.72516C15.0613 6.05452 15.269 6.44262 15.383 6.86107C15.497 7.27952 15.5145 7.71775 15.4341 8.1437C15.3538 8.56965 15.1776 8.97254 14.9185 9.32291" fill="#0094FF"/>
</svg>
